PathFileType	4	(X/Y/Z)	C:/Users/beibeiliu/ov580/test_trc/User1\sequence.21_training_dense_right.trc
DataRate	CameraRate	NumFrames	NumMarkers	Units	OrigDataRate	OrigDataStartFrame	OrigNumFrames
120	120	14	19	mm	120	32	62
Frame#	Time	ThumbCMC			ThumbMCP			ThumbIP			ThumbTip			IndexMCP			IndexPIP			IndexTip			MiddleMCP			MiddlePIP			MiddleTip			RingMCP			RingPIP			RingTip			PinkyMCP			PinkyPIP			PinkyTip			BackHand1			BackHand2			BackHand3	
		X0	Y0	Z0	X1	Y1	Z1	X2	Y2	Z2	X3	Y3	Z3	X4	Y4	Z4	X5	Y5	Z5	X6	Y6	Z6	X7	Y7	Z7	X8	Y8	Z8	X9	Y9	Z9	X10	Y10	Z10	X11	Y11	Z11	X12	Y12	Z12	X13	Y13	Z13	X14	Y14	Z14	X15	Y15	Z15	X16	Y16	Z16	X17	Y17	Z17	X18	Y18	Z18	
31	0.258333	216.478	67.4074	86.058	203.527	74.7975	45.1984	200.844	63.221	19.8876	196.685	32.3616	8.33167	255.686	54.7283	15.1659	229.908	59.8503	-8.18185	203.551	63.7951	15.1907	254.73	31.9692	4.11834	224.734	38.8364	-11.5018	204.047	46.1469	24.0267	243.882	12.4553	6.6513	215.216	21.0707	-6.76154	198.253	28.5531	19.0883	231.152	-6.8104	21.2122	212.802	7.6669	4.52807	191.866	22.5354	23.9817	245.118	6.05505	71.6007	234.528	4.89076	106.73	246.041	35.8708	91.31	
32	0.266667	190.039	65.3832	92.8446	179.903	67.8463	48.2781	188.708	60.924	19.46	207.193	35.9301	8.92813	234.376	92.6246	26.0666	211.58	83.3739	-1.19703	192.604	65.1794	17.295	249.808	74.9613	17.2249	223.156	65.5563	-6.3172	205.437	44.6559	22.8197	256.386	50.8948	14.9874	230.504	42.802	-4.93102	211.268	27.9924	20.9483	256.908	27.3085	26.0926	235.295	22.8632	4.18991	206.86	20.2281	24.605	258.381	37.0022	78.6345	248.212	23.405	106.834	236.832	61.1028	95.7708	
33	0.275	171.27	42.4999	91.6311	157.641	36.4378	52.5165	170.504	35.6096	23.3176	202.068	28.8966	9.18919	185.15	92.7413	23.998	180.14	73.4486	-0.839682	179.453	44.0557	19.4851	217.104	85.6497	18.8772	201.996	64.0735	-6.42064	195.395	36.5717	20.1883	234.679	70.2347	13.7051	221.163	47.0277	-3.64165	214.53	25.0559	19.1253	248.133	51.7454	25.2962	233.128	34.6709	6.8786	212.168	11.1875	24.9298	240.751	63.1923	81.7296	238.282	46.9023	108.693	204.547	65.3146	100.011	
34	0.283333	160.326	31.4015	88.7855	146.364	15.6636	52.0527	160.409	11.0156	29.2834	191.714	4.78732	14.2781	170.317	64.9903	13.8576	161.696	37.2428	-5.43662	164.553	17.7475	21.5053	191.037	63.5496	4.66068	185.875	34.8091	-10.349	184.694	15.1571	26.2627	214.39	51.9203	7.89708	207.71	23.8279	-4.74756	200.097	6.24805	27.0604	232.447	37.4411	20.9037	221.059	13.2556	9.1579	204.522	-2.99136	32.0212	224.936	56.7054	73.5758	224.402	47.3878	105.983	189.087	60.5573	89.4205	
35	0.291667	150.672	29.2685	92.0604	131.461	9.77167	56.1938	140.485	-5.6362	32.9359	169.622	-17.9196	29.232	157.703	38.0723	3.68183	151.413	9.23306	-4.10988	142.341	-0.551898	28.2354	181.865	26.4952	-3.79229	166.993	-4.01086	-5.60274	166.793	-7.94927	33.7621	202.814	11.6687	4.72607	181.386	-16.2392	3.57231	181.01	-18.7596	39.2052	214.368	-1.18795	17.6914	197.867	-20.7306	15.897	183.705	-24.7415	46.4786	214.342	37.7062	64.0711	217.961	34.747	100.499	187.262	50.211	80.7612	
36	0.3	152.76	43.6957	84.1209	124.303	30.0596	60.1973	126.185	4.93315	34.9906	142.08	-20.5199	37.3075	159.523	25.4571	1.07634	133.323	6.8574	-3.91751	126.437	5.04524	30.4783	168.321	7.90957	-3.45101	143.205	-12.6632	-0.0742941	140.691	-3.92237	40.5898	180.471	-14.2436	8.05248	150.012	-29.888	14.9027	151.275	-20.5195	46.9365	190.836	-30.5486	26.8942	159.089	-40.3435	29.9768	151.176	-26.7877	54.2486	208.152	11.2309	60.3286	213.997	17.554	90.7902	192.899	41.19	75.6961	
37	0.308333	170.3	54.2411	81.6498	137.004	58.1016	54.2345	123.438	31.4308	33.6365	123.069	1.50179	39.9684	162.92	25.0802	-0.00519843	131.598	18.4817	-5.70778	120.451	33.3346	25.8111	160.854	1.1247	-2.98326	127.101	-0.899618	2.37441	132.296	11.9534	40.178	158.853	-20.4162	11.2019	123.885	-14.5386	18.822	128.884	-1.66618	47.2484	157.723	-37.014	31.5817	128.649	-26.6854	34.228	133.074	-6.29159	59.142	199.6	-7.34746	61.9493	208.178	-3.52369	90.9819	201.11	28.3967	65.8651	
38	0.316667	192.009	56.3923	77.2584	164.042	71.1241	48.1196	140.624	53.9228	28.9493	123.623	31.4036	34.6673	170.998	25.1207	-5.21144	142.155	36.4679	-10.9105	137.902	52.6289	20.7989	160.143	1.50874	-1.62216	131.113	20.1209	-3.72451	137.991	35.729	34.2337	146.985	-10.1595	9.32413	119.488	4.88747	12.0709	126.722	22.0358	42.0551	142.976	-25.4206	33.9458	119.175	-8.8526	28.0459	126.984	13.8413	50.726	187.263	-13.021	64.4607	198.103	-8.87443	92.847	207.899	15.8077	66.8651	
39	0.325	208.23	59.1679	76.7893	184.358	71.0881	42.5829	163.012	59.0309	24.9522	141.139	42.9537	26.0345	196.655	26.5377	-1.0851	169.696	40.6336	-17.5644	161.232	61.7325	11.9603	178.678	7.16375	-5.97322	150.515	28.9339	-8.37282	155.494	41.8657	28.7692	158.482	-6.76357	6.05855	137.316	17.5729	3.41041	142.135	32.5001	34.6134	152.787	-16.286	28.2341	132.088	3.85993	18.2977	138.107	25.052	43.4691	189.357	-14.4624	66.4354	195.519	-9.68883	100.273	217.328	13.7207	71.1643	
40	0.333333	215.871	62.1175	79.4814	195.984	73.7264	46.0136	180.465	62.7377	21.3785	163.331	38.8836	16.8394	224.246	31.4815	2.45605	196.888	41.5007	-15.5824	181.874	62.3791	12.9775	208.151	7.59238	-2.08094	184.109	27.9874	-14.6097	175.454	43.5131	22.9047	190.221	-7.03458	7.66246	167.339	15.5106	-4.5075	159.587	29.4567	24.9989	177.236	-18.5268	24.2189	159.085	1.39179	8.52862	153.092	24.043	31.2434	208.951	-8.49778	67.9263	208.454	-6.60404	102.345	227.266	18.5902	79.9238	
41	0.341667	207.941	67.5021	87.4105	189.477	76.7289	51.357	188	60.3547	22.7574	182.007	31.9205	11.3876	241.29	56.8333	10.9524	214.485	57.1252	-10.6976	189.882	65.4169	11.8336	238.444	31.2503	0.525826	207.569	35.7553	-12.2752	190.165	40.3724	24.1562	227.04	7.25485	5.26287	201.22	18.3657	-8.10942	182.624	23.6402	24.2321	217.807	-11.5638	24.1892	196.413	4.48417	5.0478	175.915	15.8115	22.25	235.508	3.43022	73.741	227.083	3.13049	101.871	238.599	39.3087	88.9087	
42	0.35	189.037	60.4505	91.1112	171.3	60.6494	55.24	179.3	52.98	23.1541	194.732	28.4562	8.63483	224.789	81.5251	16.7243	206.12	70.6178	-4.0249	182.092	56.7075	17.5391	240.267	62.2296	7.01827	215.504	51.2083	-10.2169	194.12	38.1538	22.9447	244.041	40.9688	11.6507	217.659	31.0261	-6.47911	198.138	23.3298	18.2483	248.069	14.0203	23.4315	225.688	13.6492	2.08848	196.073	10.8176	20.5794	249.949	31.0416	77.2172	243.674	20.7132	104.19	230.238	58.635	92.1648	
43	0.358333	171.552	41.163	93.3117	161.309	35.7176	56.103	170.68	35.0575	26.977	193.443	25.1711	12.1203	195.272	85.3537	27.2002	180.004	67.5212	-1.12802	171.652	42.2409	18.5934	217.271	78.2559	17.9668	199.459	59.2102	-6.57233	190.976	33.1981	20.6927	235.001	62.927	17.1341	215.622	40.9465	-4.21507	208.874	19.5923	18.3108	250.218	40.7579	23.8596	229.654	29.757	5.39627	209.383	9.52211	19.7881	241.1	50.6633	80.9371	241.355	37.5216	107.796	212.735	58.0087	98.7929	
44	0.366667	168.513	26.0819	91.2536	155.012	18.5981	57.6086	164.435	20.9193	28.4185	189.628	17.3234	11.8181	173.214	78.4504	25.3743	166.578	61.4747	-0.000836559	167.141	28.6292	18.5344	197.283	76.6484	17.3577	189.984	53.2923	-6.54268	185.668	24.9755	20.0968	219.606	65.2124	14.9684	206.932	41.3813	-5.08877	205.376	17.7556	16.2967	235.827	47.2217	27.0664	223.913	30.6035	5.06822	207.258	9.72855	19.7082	230.176	55.6097	78.7592	233.161	35.2769	110.024	197.47	51.948	100.495	
